<svg id="visual" viewBox="0 0 1280 720" width="1280" height="720" xmlns="http://www.w3.org/2000/svg" xmlns:xlink="http://www.w3.org/1999/xlink" version="1.1"><rect x="0" y="0" width="1280" height="720" fill="#012540"></rect><path d="M0 387L98 387L98 343L197 343L197 31L295 31L295 350L394 350L394 342L492 342L492 427L591 427L591 227L689 227L689 549L788 549L788 168L886 168L886 590L985 590L985 704L1083 704L1083 252L1182 252L1182 42L1280 42L1280 617L1280 721L1280 721L1182 721L1182 721L1083 721L1083 721L985 721L985 721L886 721L886 721L788 721L788 721L689 721L689 721L591 721L591 721L492 721L492 721L394 721L394 721L295 721L295 721L197 721L197 721L98 721L98 721L0 721Z" fill="#002d4b"></path><path d="M0 404L98 404L98 113L197 113L197 433L295 433L295 100L394 100L394 486L492 486L492 529L591 529L591 700L689 700L689 616L788 616L788 281L886 281L886 587L985 587L985 274L1083 274L1083 107L1182 107L1182 146L1280 146L1280 252L1280 721L1280 721L1182 721L1182 721L1083 721L1083 721L985 721L985 721L886 721L886 721L788 721L788 721L689 721L689 721L591 721L591 721L492 721L492 721L394 721L394 721L295 721L295 721L197 721L197 721L98 721L98 721L0 721Z" fill="#002b48"></path><path d="M0 244L98 244L98 623L197 623L197 224L295 224L295 553L394 553L394 557L492 557L492 292L591 292L591 183L689 183L689 250L788 250L788 307L886 307L886 192L985 192L985 260L1083 260L1083 422L1182 422L1182 472L1280 472L1280 330L1280 721L1280 721L1182 721L1182 721L1083 721L1083 721L985 721L985 721L886 721L886 721L788 721L788 721L689 721L689 721L591 721L591 721L492 721L492 721L394 721L394 721L295 721L295 721L197 721L197 721L98 721L98 721L0 721Z" fill="#002945"></path><path d="M0 468L98 468L98 256L197 256L197 425L295 425L295 270L394 270L394 308L492 308L492 659L591 659L591 254L689 254L689 330L788 330L788 210L886 210L886 662L985 662L985 203L1083 203L1083 711L1182 711L1182 349L1280 349L1280 652L1280 721L1280 721L1182 721L1182 721L1083 721L1083 721L985 721L985 721L886 721L886 721L788 721L788 721L689 721L689 721L591 721L591 721L492 721L492 721L394 721L394 721L295 721L295 721L197 721L197 721L98 721L98 721L0 721Z" fill="#012842"></path><path d="M0 571L98 571L98 331L197 331L197 336L295 336L295 547L394 547L394 714L492 714L492 424L591 424L591 353L689 353L689 366L788 366L788 579L886 579L886 629L985 629L985 338L1083 338L1083 517L1182 517L1182 475L1280 475L1280 504L1280 721L1280 721L1182 721L1182 721L1083 721L1083 721L985 721L985 721L886 721L886 721L788 721L788 721L689 721L689 721L591 721L591 721L492 721L492 721L394 721L394 721L295 721L295 721L197 721L197 721L98 721L98 721L0 721Z" fill="#01263f"></path><path d="M0 369L98 369L98 332L197 332L197 564L295 564L295 362L394 362L394 662L492 662L492 690L591 690L591 565L689 565L689 396L788 396L788 623L886 623L886 687L985 687L985 527L1083 527L1083 435L1182 435L1182 648L1280 648L1280 705L1280 721L1280 721L1182 721L1182 721L1083 721L1083 721L985 721L985 721L886 721L886 721L788 721L788 721L689 721L689 721L591 721L591 721L492 721L492 721L394 721L394 721L295 721L295 721L197 721L197 721L98 721L98 721L0 721Z" fill="#01243b"></path><path d="M0 621L98 621L98 462L197 462L197 456L295 456L295 576L394 576L394 470L492 470L492 496L591 496L591 671L689 671L689 450L788 450L788 636L886 636L886 599L985 599L985 406L1083 406L1083 611L1182 611L1182 523L1280 523L1280 594L1280 721L1280 721L1182 721L1182 721L1083 721L1083 721L985 721L985 721L886 721L886 721L788 721L788 721L689 721L689 721L591 721L591 721L492 721L492 721L394 721L394 721L295 721L295 721L197 721L197 721L98 721L98 721L0 721Z" fill="#012238"></path><path d="M0 678L98 678L98 693L197 693L197 525L295 525L295 536L394 536L394 539L492 539L492 624L591 624L591 576L689 576L689 460L788 460L788 558L886 558L886 547L985 547L985 619L1083 619L1083 516L1182 516L1182 619L1280 619L1280 636L1280 721L1280 721L1182 721L1182 721L1083 721L1083 721L985 721L985 721L886 721L886 721L788 721L788 721L689 721L689 721L591 721L591 721L492 721L492 721L394 721L394 721L295 721L295 721L197 721L197 721L98 721L98 721L0 721Z" fill="#012135"></path><path d="M0 649L98 649L98 652L197 652L197 569L295 569L295 586L394 586L394 607L492 607L492 523L591 523L591 714L689 714L689 614L788 614L788 531L886 531L886 644L985 644L985 689L1083 689L1083 552L1182 552L1182 582L1280 582L1280 715L1280 721L1280 721L1182 721L1182 721L1083 721L1083 721L985 721L985 721L886 721L886 721L788 721L788 721L689 721L689 721L591 721L591 721L492 721L492 721L394 721L394 721L295 721L295 721L197 721L197 721L98 721L98 721L0 721Z" fill="#021f32"></path><path d="M0 715L98 715L98 664L197 664L197 670L295 670L295 590L394 590L394 638L492 638L492 630L591 630L591 639L689 639L689 634L788 634L788 673L886 673L886 643L985 643L985 608L1083 608L1083 696L1182 696L1182 695L1280 695L1280 701L1280 721L1280 721L1182 721L1182 721L1083 721L1083 721L985 721L985 721L886 721L886 721L788 721L788 721L689 721L689 721L591 721L591 721L492 721L492 721L394 721L394 721L295 721L295 721L197 721L197 721L98 721L98 721L0 721Z" fill="#021d2f"></path></svg>