<svg id="visual" viewBox="0 0 1280 720" width="1280" height="720" xmlns="http://www.w3.org/2000/svg" xmlns:xlink="http://www.w3.org/1999/xlink" version="1.1"><rect x="0" y="0" width="1280" height="720" fill="#008cf3"></rect><path d="M478 720L567 720L567 669L906 669L906 617L706 617L706 566L446 566L446 514L627 514L627 463L361 463L361 411L794 411L794 360L839 360L839 309L624 309L624 257L364 257L364 206L362 206L362 154L520 154L520 103L470 103L470 51L374 51L374 0L1280 0L1280 51L1280 51L1280 103L1280 103L1280 154L1280 154L1280 206L1280 206L1280 257L1280 257L1280 309L1280 309L1280 360L1280 360L1280 411L1280 411L1280 463L1280 463L1280 514L1280 514L1280 566L1280 566L1280 617L1280 617L1280 669L1280 669L1280 720L1280 720Z" fill="#0099ff"></path><path d="M475 720L771 720L771 669L510 669L510 617L773 617L773 566L675 566L675 514L960 514L960 463L562 463L562 411L692 411L692 360L790 360L790 309L462 309L462 257L613 257L613 206L716 206L716 154L526 154L526 103L442 103L442 51L494 51L494 0L1280 0L1280 51L1280 51L1280 103L1280 103L1280 154L1280 154L1280 206L1280 206L1280 257L1280 257L1280 309L1280 309L1280 360L1280 360L1280 411L1280 411L1280 463L1280 463L1280 514L1280 514L1280 566L1280 566L1280 617L1280 617L1280 669L1280 669L1280 720L1280 720Z" fill="#0093f4"></path><path d="M829 720L833 720L833 669L611 669L611 617L971 617L971 566L1004 566L1004 514L647 514L647 463L693 463L693 411L702 411L702 360L648 360L648 309L592 309L592 257L857 257L857 206L505 206L505 154L643 154L643 103L962 103L962 51L1011 51L1011 0L1280 0L1280 51L1280 51L1280 103L1280 103L1280 154L1280 154L1280 206L1280 206L1280 257L1280 257L1280 309L1280 309L1280 360L1280 360L1280 411L1280 411L1280 463L1280 463L1280 514L1280 514L1280 566L1280 566L1280 617L1280 617L1280 669L1280 669L1280 720L1280 720Z" fill="#008ce9"></path><path d="M947 720L727 720L727 669L1015 669L1015 617L919 617L919 566L806 566L806 514L784 514L784 463L594 463L594 411L960 411L960 360L747 360L747 309L970 309L970 257L722 257L722 206L990 206L990 154L874 154L874 103L632 103L632 51L822 51L822 0L1280 0L1280 51L1280 51L1280 103L1280 103L1280 154L1280 154L1280 206L1280 206L1280 257L1280 257L1280 309L1280 309L1280 360L1280 360L1280 411L1280 411L1280 463L1280 463L1280 514L1280 514L1280 566L1280 566L1280 617L1280 617L1280 669L1280 669L1280 720L1280 720Z" fill="#0086df"></path><path d="M705 720L867 720L867 669L949 669L949 617L798 617L798 566L733 566L733 514L721 514L721 463L862 463L862 411L955 411L955 360L861 360L861 309L753 309L753 257L683 257L683 206L860 206L860 154L909 154L909 103L932 103L932 51L859 51L859 0L1280 0L1280 51L1280 51L1280 103L1280 103L1280 154L1280 154L1280 206L1280 206L1280 257L1280 257L1280 309L1280 309L1280 360L1280 360L1280 411L1280 411L1280 463L1280 463L1280 514L1280 514L1280 566L1280 566L1280 617L1280 617L1280 669L1280 669L1280 720L1280 720Z" fill="#0080d4"></path><path d="M793 720L957 720L957 669L1103 669L1103 617L976 617L976 566L1016 566L1016 514L989 514L989 463L840 463L840 411L910 411L910 360L824 360L824 309L814 309L814 257L909 257L909 206L1076 206L1076 154L808 154L808 103L1030 103L1030 51L863 51L863 0L1280 0L1280 51L1280 51L1280 103L1280 103L1280 154L1280 154L1280 206L1280 206L1280 257L1280 257L1280 309L1280 309L1280 360L1280 360L1280 411L1280 411L1280 463L1280 463L1280 514L1280 514L1280 566L1280 566L1280 617L1280 617L1280 669L1280 669L1280 720L1280 720Z" fill="#007aca"></path><path d="M1104 720L935 720L935 669L1060 669L1060 617L1132 617L1132 566L874 566L874 514L1011 514L1011 463L1130 463L1130 411L986 411L986 360L874 360L874 309L960 309L960 257L1055 257L1055 206L859 206L859 154L909 154L909 103L970 103L970 51L1014 51L1014 0L1280 0L1280 51L1280 51L1280 103L1280 103L1280 154L1280 154L1280 206L1280 206L1280 257L1280 257L1280 309L1280 309L1280 360L1280 360L1280 411L1280 411L1280 463L1280 463L1280 514L1280 514L1280 566L1280 566L1280 617L1280 617L1280 669L1280 669L1280 720L1280 720Z" fill="#0174bf"></path><path d="M960 720L1076 720L1076 669L1065 669L1065 617L961 617L961 566L1098 566L1098 514L1162 514L1162 463L1108 463L1108 411L1104 411L1104 360L1065 360L1065 309L1116 309L1116 257L991 257L991 206L1143 206L1143 154L1115 154L1115 103L1023 103L1023 51L1018 51L1018 0L1280 0L1280 51L1280 51L1280 103L1280 103L1280 154L1280 154L1280 206L1280 206L1280 257L1280 257L1280 309L1280 309L1280 360L1280 360L1280 411L1280 411L1280 463L1280 463L1280 514L1280 514L1280 566L1280 566L1280 617L1280 617L1280 669L1280 669L1280 720L1280 720Z" fill="#036eb5"></path><path d="M1140 720L1162 720L1162 669L1153 669L1153 617L1160 617L1160 566L1156 566L1156 514L1024 514L1024 463L1145 463L1145 411L1045 411L1045 360L1144 360L1144 309L1072 309L1072 257L1052 257L1052 206L1106 206L1106 154L1070 154L1070 103L1054 103L1054 51L1065 51L1065 0L1280 0L1280 51L1280 51L1280 103L1280 103L1280 154L1280 154L1280 206L1280 206L1280 257L1280 257L1280 309L1280 309L1280 360L1280 360L1280 411L1280 411L1280 463L1280 463L1280 514L1280 514L1280 566L1280 566L1280 617L1280 617L1280 669L1280 669L1280 720L1280 720Z" fill="#0468aa"></path><path d="M1126 720L1125 720L1125 669L1125 669L1125 617L1212 617L1212 566L1159 566L1159 514L1173 514L1173 463L1189 463L1189 411L1111 411L1111 360L1213 360L1213 309L1151 309L1151 257L1134 257L1134 206L1199 206L1199 154L1185 154L1185 103L1202 103L1202 51L1165 51L1165 0L1280 0L1280 51L1280 51L1280 103L1280 103L1280 154L1280 154L1280 206L1280 206L1280 257L1280 257L1280 309L1280 309L1280 360L1280 360L1280 411L1280 411L1280 463L1280 463L1280 514L1280 514L1280 566L1280 566L1280 617L1280 617L1280 669L1280 669L1280 720L1280 720Z" fill="#0662a0"></path></svg>